<?xml version="1.0" encoding="iso-8859-1"?>
<!-- Generator: Adobe Illustrator 19.0.0, SVG Export Plug-In . SVG Version: 6.00 Build 0)  -->
<svg version="1.1" id="Layer_1" xmlns="http://www.w3.org/2000/svg" xmlns:xlink="http://www.w3.org/1999/xlink" x="0px" y="0px"
	 viewBox="0 0 512.004 512.004" style="enable-background:new 0 0 512.004 512.004;" xml:space="preserve">
<g>
	<g>
		<g>
			   <path d="m281.177191,230.841295c1.105958,2.162843 3.306155,3.412356 5.581058,3.412356c0.949952,0 1.924806,-0.218994 2.831545,-0.681153c0.368408,-0.1875 37.156519,-18.875257 55.300086,-24.606462c3.287844,-1.043702 5.112308,-4.5564 4.068606,-7.843511c-1.037842,-3.287844 -4.524905,-5.1189 -7.843511,-4.081057c-19.112562,6.043949 -55.650184,24.606462 -57.199989,25.393816c-3.075442,1.562257 -4.300052,5.325443 -2.737795,8.406011z" id="svg_4"/>
     <path d="m286.75825,159.254333c0.949952,0 1.924806,-0.218994 2.831545,-0.681153c0.368408,-0.1875 37.156519,-18.875257 55.300086,-24.606462c3.287844,-1.043702 5.112308,-4.5564 4.068606,-7.843511c-1.037842,-3.287844 -4.524905,-5.1189 -7.843511,-4.081057c-19.112562,6.043949 -55.650184,24.606462 -57.199989,25.393816c-3.074709,1.562257 -4.300052,5.324711 -2.737795,8.406011c1.105958,2.162111 3.306155,3.412356 5.581058,3.412356z" id="svg_5"/>
     <path d="m436.752491,146.754081c-3.456301,0 -6.24976,2.800051 -6.24976,6.24976l0,243.750163c0,10.337409 -8.412603,18.750013 -18.750013,18.750013l-150.0001,0l0,-14.381113c9.112799,-3.187502 32.849876,-10.618659 56.250038,-10.618659c54.443884,0 91.412903,12.056405 91.781311,12.180916c1.880861,0.624756 3.981448,0.312744 5.625004,-0.862794c1.631105,-1.174805 2.593508,-3.062258 2.593508,-5.069095l0,-274.998963c0,-2.931154 -2.031007,-5.468998 -4.894046,-6.100346c0,0 -4.899906,-1.093507 -13.275155,-2.631594c-3.381594,-0.624756 -6.649663,1.625245 -7.275151,5.012699c-0.624756,3.399905 1.618653,6.656254 5.012699,7.281011c3.194094,0.587403 5.8689,1.105958 7.931402,1.519044l0,261.61248c-14.162851,-3.712649 -45.612335,-10.443611 -87.500303,-10.443611c-27.231464,0 -53.980993,8.94361 -62.256633,11.975106c-7.35645,-3.249758 -29.593526,-11.975106 -56.493934,-11.975106c-43.050322,0 -78.512748,7.100102 -93.750063,10.70655l0,-262.119316c12.48121,-3.06885 49.344027,-11.08741 93.750063,-11.08741c22.787857,0 42.331083,7.093511 50.000278,10.300056l0,245.95036c0,2.250002 1.212159,4.331546 3.168459,5.437504c1.9563,1.11255 4.368899,1.081055 6.300297,-0.081299c0.618897,-0.368408 62.543743,-37.35647 117.506182,-55.675086c2.556154,-0.856202 4.275149,-3.237307 4.275149,-5.931156l0,-256.250416c0,-2.05005 -1.006348,-3.968997 -2.693849,-5.13721c-1.67505,-1.168946 -3.82471,-1.437745 -5.756107,-0.718506c-50.006137,18.755872 -100.605536,50.243442 -101.112372,50.556186c-2.925295,1.831056 -3.81885,5.68726 -1.987794,8.612555c1.825197,2.925295 5.6814,3.81885 8.612555,1.987794c0.462159,-0.293701 44.481475,-27.681171 90.437316,-46.162384l0,242.637614c-42.66287,14.824961 -87.206601,39.03152 -106.250315,49.868442l0,-239.143959c0,-2.368654 -1.337403,-4.531497 -3.456301,-5.59351c-1.075196,-0.531006 -26.687274,-13.156503 -59.043497,-13.156503c-56.474891,0 -99.893622,12.219002 -101.718818,12.743417c-2.681398,0.762452 -4.531497,3.218996 -4.531497,6.006596l0,275.000428c0,1.9563 0.925049,3.806399 2.481447,4.987796c1.100098,0.831299 2.42505,1.262696 3.769045,1.262696c0.574952,0 1.149903,-0.081299 1.712403,-0.243897c0.431397,-0.118652 43.650176,-12.256356 98.287419,-12.256356c22.850113,0 42.375028,7.112554 50.000278,10.305915l0,14.693857l-150.0001,0c-10.337409,0 -18.750013,-8.412603 -18.750013,-18.750013l0,-243.750163c0,-3.449709 -2.800051,-6.24976 -6.24976,-6.24976s-6.24976,2.800051 -6.24976,6.24976l0,243.750163c0,17.230969 14.018564,31.250265 31.250265,31.250265l312.500453,0c17.230969,0 31.250265,-14.018564 31.250265,-31.250265l0,-243.750163c-0.000732,-3.450442 -2.794191,-6.250492 -6.250492,-6.250492z" fill="black" id="svg_6"/>
     <path d="m281.177191,193.34127c1.105958,2.162843 3.306155,3.412356 5.581058,3.412356c0.949952,0 1.924806,-0.218994 2.831545,-0.681153c0.368408,-0.1875 37.156519,-18.875257 55.300086,-24.606462c3.287844,-1.043702 5.112308,-4.5564 4.068606,-7.843511c-1.037842,-3.287844 -4.524905,-5.1189 -7.843511,-4.081057c-19.112562,6.043949 -55.650184,24.606462 -57.199989,25.393816c-3.075442,1.562257 -4.300052,5.325443 -2.737795,8.406011z" id="svg_7"/>
     <path d="m281.177191,268.34132c1.105958,2.162843 3.306155,3.412356 5.581058,3.412356c0.949952,0 1.924806,-0.218994 2.831545,-0.681153c0.368408,-0.1875 37.156519,-18.875257 55.300086,-24.606462c3.287844,-1.043702 5.112308,-4.5564 4.068606,-7.843511c-1.037842,-3.287844 -4.524905,-5.1189 -7.843511,-4.081057c-19.112562,6.043949 -55.650184,24.606462 -57.199989,25.393816c-3.075442,1.562257 -4.300052,5.325443 -2.737795,8.406011z" id="svg_8"/>
     <path d="m219.427394,168.991888c-38.593532,-9.056403 -82.450251,2.481447 -84.293758,2.9751c-3.331057,0.893555 -5.312259,4.318362 -4.418704,7.656011c0.750001,2.793459 3.27466,4.631107 6.031498,4.631107c0.537598,0 1.081055,-0.068848 1.625245,-0.212402c0.418946,-0.118652 42.643827,-11.225105 78.206595,-2.88135c3.343508,0.781495 6.725102,-1.30005 7.512456,-4.662601c0.786622,-3.355959 -1.300782,-6.71851 -4.663333,-7.505864z" id="svg_9"/>
     <path d="m219.427394,206.491913c-38.593532,-9.049811 -82.450251,2.481447 -84.293758,2.9751c-3.331057,0.893555 -5.312259,4.319095 -4.418704,7.656011c0.750001,2.793459 3.27466,4.631107 6.031498,4.631107c0.537598,0 1.081055,-0.068848 1.625245,-0.212402c0.418946,-0.118652 42.643827,-11.225105 78.206595,-2.88135c3.343508,0.781495 6.725102,-1.30005 7.512456,-4.662601c0.786622,-3.355959 -1.300782,-6.71851 -4.663333,-7.505864z" id="svg_10"/>
     <path d="m281.177191,305.841345c1.105958,2.162843 3.306155,3.412356 5.581058,3.412356c0.949952,0 1.924806,-0.218994 2.831545,-0.681153c0.368408,-0.1875 37.156519,-18.875257 55.300086,-24.606462c3.287844,-1.043702 5.112308,-4.5564 4.068606,-7.843511c-1.037842,-3.287112 -4.524905,-5.1189 -7.843511,-4.081057c-19.112562,6.043949 -55.650184,24.606462 -57.199989,25.393816c-3.075442,1.562257 -4.300052,5.325443 -2.737795,8.406011z" id="svg_11"/>
     <path d="m219.427394,243.991939c-38.593532,-9.049811 -82.450251,2.474855 -84.293758,2.9751c-3.331057,0.893555 -5.312259,4.319095 -4.418704,7.656011c0.750001,2.793459 3.27466,4.637698 6.031498,4.637698c0.537598,0 1.081055,-0.074707 1.625245,-0.218994c0.418946,-0.118652 42.643827,-11.225105 78.206595,-2.88135c3.343508,0.781495 6.725102,-1.30005 7.512456,-4.662601c0.786622,-3.355959 -1.300782,-6.71851 -4.663333,-7.505864z" id="svg_12"/>
     <path d="m219.427394,318.991989c-38.593532,-9.056403 -82.450251,2.481447 -84.293758,2.9751c-3.331057,0.893555 -5.312259,4.319095 -4.418704,7.656011c0.750001,2.793459 3.27466,4.637698 6.031498,4.637698c0.537598,0 1.081055,-0.074707 1.625245,-0.218994c0.418946,-0.118652 42.643827,-11.225105 78.206595,-2.88135c3.343508,0.774903 6.725102,-1.30005 7.512456,-4.662601c0.786622,-3.355959 -1.300782,-6.71851 -4.663333,-7.505864z" id="svg_13"/>
     <path d="m219.427394,281.491964c-38.593532,-9.056403 -82.450251,2.474855 -84.293758,2.9751c-3.331057,0.893555 -5.312259,4.319095 -4.418704,7.656011c0.750001,2.793459 3.27466,4.637698 6.031498,4.637698c0.537598,0 1.081055,-0.074707 1.625245,-0.218994c0.418946,-0.118652 42.643827,-11.225105 78.206595,-2.88135c3.343508,0.781495 6.725102,-1.30005 7.512456,-4.662601c0.786622,-3.355959 -1.300782,-6.71851 -4.663333,-7.505864z" id="svg_14"/>
    </g>
	</g>
</g>
<g>
</g>
<g>
</g>
<g>
</g>
<g>
</g>
<g>
</g>
<g>
</g>
<g>
</g>
<g>
</g>
<g>
</g>
<g>
</g>
<g>
</g>
<g>
</g>
<g>
</g>
<g>
</g>
<g>
</g>
</svg>
