<?xml version="1.0" encoding="iso-8859-1"?>
<!-- Generator: Adobe Illustrator 19.0.0, SVG Export Plug-In . SVG Version: 6.00 Build 0)  -->
<svg version="1.1" id="Capa_1" xmlns="http://www.w3.org/2000/svg" xmlns:xlink="http://www.w3.org/1999/xlink" x="0px" y="0px"
	 viewBox="0 0 512 512" style="enable-background:new 0 0 512 512;" xml:space="preserve">

<g>  <path d="m437.874013,126.633557l-61.287378,-61.287378c-8.691584,-8.691584 -20.25636,-13.489205 -32.557832,-13.489205l-187.314555,0c-5.091983,0 -9.207508,4.115525 -9.207508,9.207508c0,5.091983 4.115525,9.207508 9.207508,9.207508l187.314555,0c7.384365,0 14.327187,2.873192 19.538655,8.093365l61.287378,61.287378c5.220964,5.220964 8.093365,12.154291 8.093365,19.538655l0,270.184503c0,5.082488 -4.125021,9.207508 -9.207508,9.207508c-5.091983,0 -9.207508,4.115525 -9.207508,9.207508s4.115525,9.209091 9.207508,9.209091c15.230054,0 27.623316,-12.394053 27.623316,-27.623316l0,-270.184503c0,-12.301472 -4.797621,-23.866248 -13.489997,-32.558623z" fill="black" id="svg_3"/>
   <path d="m294.830829,88.687798c-5.091983,0 -9.207508,4.115525 -9.207508,9.207508l0,36.830825c0,5.091983 4.115525,9.207508 9.207508,9.207508c5.091983,0 9.207508,-4.115525 9.207508,-9.207508l0,-36.830033c0.000791,-5.091983 -4.115525,-9.2083 -9.207508,-9.2083z" id="svg_6"/>
   <path d="m396.116586,254.428487l-276.233162,0c-5.091983,0 -9.207508,4.115525 -9.207508,9.207508l0,147.324881c0,5.091983 4.115525,9.207508 9.207508,9.207508c5.091983,0 9.207508,-4.115525 9.207508,-9.207508l0,-138.116581l257.818146,0l0,165.740689l-294.649761,0c-5.082488,0 -9.207508,-4.125021 -9.207508,-9.207508l0,-349.897185c0,-5.082488 4.125021,-9.207508 9.207508,-9.207508l18.415808,0l0,101.285757c0,5.091983 4.115525,9.207508 9.207508,9.207508l220.987321,0c5.091983,0 9.207508,-4.115525 9.207508,-9.207508l0,-73.66244c0,-5.091983 -4.115525,-9.207508 -9.207508,-9.207508c-5.091983,0 -9.207508,4.115525 -9.207508,9.207508l0,64.454932l-202.571513,0l0,-101.285757c0,-5.092774 -4.116316,-9.2083 -9.207508,-9.2083l-27.624108,0c-15.229263,0 -27.623316,12.394053 -27.623316,27.623316l0,349.896394c0,15.230054 12.394053,27.623316 27.623316,27.623316l303.85727,0c5.091983,0 9.207508,-4.115525 9.207508,-9.207508l0,-184.156497c0.000791,-5.091983 -4.115525,-9.207508 -9.207508,-9.207508z" fill="black" id="svg_9"/>
   <path d="m340.869954,309.675119l-165.739897,0c-5.091983,0 -9.207508,4.115525 -9.207508,9.207508c0,5.091983 4.115525,9.207508 9.207508,9.207508l165.740689,0c5.091983,0 9.207508,-4.115525 9.207508,-9.207508c0,-5.091192 -4.116316,-9.207508 -9.2083,-9.207508z" id="svg_12"/>
   <path d="m340.869954,346.506735l-165.739897,0c-5.091983,0 -9.207508,4.115525 -9.207508,9.207508s4.115525,9.207508 9.207508,9.207508l165.740689,0c5.091983,0 9.207508,-4.115525 9.207508,-9.207508s-4.116316,-9.207508 -9.2083,-9.207508z" id="svg_15"/>
   <path d="m340.869954,383.33756l-165.739897,0c-5.091983,0 -9.207508,4.115525 -9.207508,9.207508s4.115525,9.207508 9.207508,9.207508l165.740689,0c5.091983,0 9.207508,-4.115525 9.207508,-9.207508s-4.116316,-9.207508 -9.2083,-9.207508z" id="svg_18"/>
  </g>
<g>
</g>
<g>
</g>
<g>
</g>
<g>
</g>
<g>
</g>
<g>
</g>
<g>
</g>
<g>
</g>
<g>
</g>
<g>
</g>
<g>
</g>
<g>
</g>
<g>
</g>
<g>
</g>
</svg>
