<svg id="Capa_1" enable-background="new 0 0 512.019 512.019"  viewBox="0 0 512.019 512.019" xmlns="http://www.w3.org/2000/svg"><g><path d="m439.036091,108.939454l-7.460117,-7.459365c-2.201716,-2.202468 -5.772737,-2.201716 -7.974453,0c-2.202468,2.202468 -2.201716,5.772737 0,7.974453l7.460117,7.459365c7.566895,7.566895 7.566895,19.878607 0,27.445502l-10.281442,10.281442l-64.391919,-64.391919l10.281442,-10.281442c7.566895,-7.566895 19.878607,-7.566895 27.445502,0l10.914586,10.914586c2.201716,2.201716 5.772737,2.201716 7.974453,0c2.202468,-2.201716 2.202468,-5.772737 0,-7.974453l-10.914586,-10.914586c-5.795295,-5.795295 -13.500549,-8.987332 -21.697579,-8.987332c-8.196278,0 -15.902284,3.192037 -21.697579,8.987332l-225.998468,225.998468c-2.202468,2.201716 -2.202468,5.772737 0,7.974453c2.201716,2.201716 5.772737,2.201716 7.974453,0l182.889803,-182.889803l28.208733,28.208733l-231.941146,231.938138l-18.42734,-8.279745c-0.666982,-0.299277 -1.198612,-0.831659 -1.497889,-1.497137l-8.281249,-18.428843l30.537529,-30.537529c2.202468,-2.201716 2.202468,-5.772737 0,-7.974453c-2.201716,-2.201716 -5.772737,-2.201716 -7.974453,0c0,0 -33.345318,33.358853 -33.377652,33.392691c-1.455027,1.526463 -1.621209,3.655991 -2.002449,5.647913c-0.31582,1.648279 -15.5233,81.001038 -15.627822,81.546955c-0.574491,2.997281 0.370712,6.075021 2.528815,8.233876c1.742273,1.742273 4.083852,2.694245 6.499122,2.694245c0.575995,0 1.157254,-0.054141 1.734754,-0.165429c0,0 84.341961,-16.163964 84.384823,-16.172987c0.955731,-0.193252 2.031023,-0.727138 2.770944,-1.41743c0.047373,-0.044365 277.943323,-277.929788 277.943323,-277.929788c11.962055,-11.964311 11.962055,-31.4316 -0.002256,-43.395911zm-360.286596,306.807006l0.302285,-1.577596l17.809235,17.809235l-0.083467,0.015791l-21.948731,4.20642l3.920679,-20.453851zm31.496268,13.66673l-28.629074,-28.629074l5.443382,-28.401985l2.554381,5.684758c1.431717,3.186773 3.974819,5.729875 7.162344,7.163096l20.02223,8.996356l8.998611,20.025238c1.431717,3.186021 3.975571,5.729123 7.161592,7.16084l5.68927,2.556637l-28.402737,5.444134zm45.767568,-10.004723l-18.430347,-8.282753c-0.66623,-0.299277 -1.198612,-0.831659 -1.497889,-1.497889l-8.282001,-18.431099l231.941898,-231.937386l28.208733,28.208733l-231.940394,231.940394zm239.914095,-239.914095l-64.391919,-64.391919l16.878318,-16.878318l64.391919,64.391919l-16.878318,16.878318z" fill="black" id="svg_2"/>
</g></svg>